<?xml version="1.0" encoding="utf-8"?>
<!-- Generator: Adobe Illustrator 23.0.4, SVG Export Plug-In . SVG Version: 6.00 Build 0)  -->
<svg version="1.1" id="Слой_1" xmlns="http://www.w3.org/2000/svg" xmlns:xlink="http://www.w3.org/1999/xlink" x="0px" y="0px"
	 viewBox="0 0 920 201" style="enable-background:new 0 0 920 201;" xml:space="preserve">
<style type="text/css">
	.st0{clip-path:url(#SVGID_2_);}
	.st1{opacity:0.5;}
	.st2{fill:none;stroke:#FFFFFF;stroke-width:8;stroke-miterlimit:10;}
	.st3{fill:#FFFFFF;}
	.st4{font-family:'Caveat-Regular';}
	.st5{font-size:167.9529px;}
</style>
<rect x="202" y="4" class="st2" width="714" height="193"/>
<text transform="matrix(1 0 0 1 245.9424 150.9919)" class="st3 st4 st5">Contact us</text>
<g>
	<path class="st3" d="M87.26,99.19c-1.23,3.03-1.85,4.7-1.85,5.01c0,1.13-0.26,1.95-0.77,2.46c-0.31,0-0.52,0.23-0.62,0.69
		c-0.1,0.46-0.15,0.8-0.15,1c0,0.31-0.26,1.39-0.77,3.23l7.85-0.15c7.6-0.2,13.24-0.31,16.94-0.31l1.54-4.47
		c0.41,0,0.77-0.33,1.08-1c0.31-0.67,0.46-1.41,0.46-2.23c0-0.92,0.18-1.87,0.54-2.85c0.36-0.97,0.74-1.67,1.16-2.08
		c0-0.31,0.13-0.87,0.38-1.69c0.26-0.82,0.39-1.39,0.39-1.69c0-0.2,0.13-0.59,0.38-1.15c0.25-0.56,0.39-1,0.39-1.31l1.08-2.16
		L90.95,90.8C89.72,93.37,88.49,96.16,87.26,99.19z"/>
	<path class="st3" d="M0,0v201h201V0H0z M149.63,43.06c-0.41,1.13-1.44,3.44-3.08,6.93c-0.31,0.72-0.72,1.57-1.23,2.54
		c-0.52,0.98-1.08,2.18-1.69,3.62c-0.21,0.52-0.59,1.46-1.15,2.85c-0.57,1.39-1.46,3.36-2.7,5.93c-4,9.34-6.11,14.32-6.31,14.94H139
		c2.46,0,4.18,0.18,5.16,0.54c0.97,0.36,2.08,1.16,3.31,2.39c0.92,0.92,1.39,1.95,1.39,3.08c0,1.23-0.46,2.18-1.39,2.85
		c-0.92,0.67-2.16,0.9-3.7,0.69l-8.47,0.77l-5.85,0.15c-1.23,2.67-2.52,5.57-3.85,8.7c-1.34,3.13-2,4.85-2,5.16
		c0,1.13-0.26,1.95-0.77,2.46c-0.31,0-0.51,0.23-0.62,0.69c-0.1,0.46-0.15,0.8-0.15,1c0,0.51-0.21,1.34-0.62,2.46h8.01
		c2.46,0,4.18,0.18,5.16,0.54c0.97,0.36,2.08,1.16,3.31,2.39c1.02,1.03,1.54,2.11,1.54,3.23c0,1.13-0.46,2.03-1.39,2.7
		c-0.92,0.67-2.16,0.9-3.7,0.69l-8.62,0.77c-0.21,0-0.82,0.03-1.85,0.08c-1.03,0.05-2.93,0.08-5.7,0.08
		c-2.77,9.04-5.37,17.97-7.78,26.8c-2.41,8.83-3.62,14.37-3.62,16.63c0,2.16-0.33,3.64-1,4.47c-0.67,0.82-1.62,1.54-2.85,2.16
		c-0.31,0.1-0.77,0.15-1.39,0.15c-2.05,0-3.77-1.18-5.16-3.54c-1.39-2.36-2.08-5.34-2.08-8.93c0-2.16,0.2-4.21,0.62-6.16
		c1.13-2.98,1.69-5.13,1.69-6.47c0.41-2.36,2.98-10.68,7.7-24.95l-24.49,0.31c-7.5,24.74-11.24,39.06-11.24,42.97
		c0,2.16-0.33,3.64-1,4.47c-0.67,0.82-1.62,1.54-2.85,2.16c-0.31,0.1-0.77,0.15-1.39,0.15c-2.05,0-3.77-1.18-5.16-3.54
		c-1.39-2.36-2.08-5.34-2.08-8.93c0-2.16,0.2-4.21,0.62-6.16c1.13-2.98,1.69-5.13,1.69-6.47c0.2-1.13,1.08-4.21,2.62-9.24
		c1.54-5.03,3.18-10.11,4.93-15.25h-3.39c-2.05,0-3.85-0.26-5.39-0.77c-1.44,0-2.64-0.28-3.62-0.85c-0.98-0.56-1.67-1.26-2.08-2.08
		c-0.52-0.82-0.77-1.44-0.77-1.85c0-0.92,0.72-1.64,2.16-2.16c1.44-0.51,3.64-0.92,6.62-1.23c1.64-0.31,4.88-0.56,9.7-0.77l2-5.54
		c0.41,0,0.77-0.33,1.08-1c0.31-0.67,0.46-1.41,0.46-2.23c0-0.92,0.18-1.87,0.54-2.85c0.36-0.97,0.74-1.67,1.15-2.08
		c0-0.31,0.13-0.87,0.39-1.69c0.26-0.82,0.38-1.39,0.38-1.69c0-0.2,0.13-0.59,0.39-1.15c0.26-0.56,0.38-1,0.38-1.31l0.77-1.69h-4.77
		c-2.05,0-3.85-0.26-5.39-0.77c-2.67,0-4.52-0.92-5.54-2.77c-0.51-0.62-0.77-1.23-0.77-1.85c0-1.74,2.87-2.93,8.62-3.54
		c1.54-0.31,5.54-0.62,12.01-0.92c3.7-9.14,7.55-19.04,11.55-29.72c4-10.68,6.01-16.43,6.01-17.25c0-0.82,0.54-1.67,1.62-2.54
		c1.08-0.87,2.08-1.31,3-1.31c0.51-0.51,1.33-0.77,2.46-0.77l2.46,2.46c1.03,0.92,1.95,2.06,2.77,3.39c0.82,1.34,1.23,2.57,1.23,3.7
		c0,1.54-0.21,2.88-0.62,4c-0.41,1.13-1.44,3.44-3.08,6.93c-0.31,0.72-0.72,1.57-1.23,2.54c-0.52,0.98-1.08,2.18-1.69,3.62
		L103.73,60c-1.03,2.36-2.34,5.39-3.93,9.09c-1.59,3.7-3.21,7.55-4.85,11.55c4.62-0.2,12.83-0.41,24.64-0.62
		c3.59-9.03,7.34-18.71,11.24-29.03c3.9-10.32,5.85-15.94,5.85-16.86c0-0.82,0.54-1.67,1.62-2.54c1.08-0.87,2.08-1.31,3-1.31
		c0.51-0.51,1.33-0.77,2.46-0.77l2.46,2.46c1.02,0.92,1.95,2.06,2.77,3.39c0.82,1.34,1.23,2.57,1.23,3.7
		C150.24,40.59,150.04,41.93,149.63,43.06z"/>
</g>
</svg>
